<svg width="39" height="39" viewBox="0 0 39 39" fill="none" xmlns="http://www.w3.org/2000/svg">
<path d="M19.4998 35.7498C17.2519 35.7498 15.1394 35.3229 13.1623 34.4693C11.1853 33.6156 9.46548 32.4581 8.00299 30.9967C6.54049 29.5353 5.38296 27.8155 4.53037 25.8373C3.67779 23.8591 3.25096 21.7467 3.24988 19.4998C3.2488 17.253 3.67563 15.1405 4.53037 13.1623C5.38512 11.1842 6.54266 9.4644 8.00299 8.00299C9.46332 6.54157 11.1831 5.38404 13.1623 4.53037C15.1416 3.67671 17.2541 3.24988 19.4998 3.24988C21.7456 3.24988 23.8581 3.67671 25.8373 4.53037C27.8165 5.38404 29.5363 6.54157 30.9967 8.00299C32.457 9.4644 33.6151 11.1842 34.4709 13.1623C35.3267 15.1405 35.753 17.253 35.7498 19.4998C35.7465 21.7467 35.3197 23.8591 34.4693 25.8373C33.6189 27.8155 32.4613 29.5353 30.9967 30.9967C29.532 32.4581 27.8122 33.6162 25.8373 34.4709C23.8624 35.3257 21.7499 35.7519 19.4998 35.7498ZM19.4998 32.4998C23.129 32.4998 26.2029 31.2404 28.7217 28.7217C31.2404 26.2029 32.4998 23.129 32.4998 19.4998C32.4998 15.8707 31.2404 12.7967 28.7217 10.278C26.2029 7.75924 23.129 6.49987 19.4998 6.49987C15.8707 6.49987 12.7967 7.75924 10.278 10.278C7.75924 12.7967 6.49987 15.8707 6.49987 19.4998C6.49987 23.129 7.75924 26.2029 10.278 28.7217C12.7967 31.2404 15.8707 32.4998 19.4998 32.4998ZM16.2498 25.9998H22.7498C23.2102 25.9998 23.5964 25.8438 23.9084 25.5318C24.2204 25.2198 24.3759 24.8341 24.3748 24.3748V22.7498C24.3748 22.2894 24.2188 21.9037 23.9068 21.5928C23.5948 21.2819 23.2091 21.1259 22.7498 21.1248C22.2905 21.1237 21.9048 21.2797 21.5928 21.5928C21.2808 21.9059 21.1248 22.2916 21.1248 22.7498H17.8748V16.2498H21.1248C21.1248 16.7103 21.2808 17.0965 21.5928 17.4085C21.9048 17.7205 22.2905 17.8759 22.7498 17.8748C23.2091 17.8737 23.5954 17.7177 23.9084 17.4068C24.2215 17.0959 24.377 16.7103 24.3748 16.2498V14.6248C24.3748 14.1644 24.2188 13.7788 23.9068 13.4678C23.5948 13.1569 23.2091 13.0009 22.7498 12.9998H16.2498C15.7894 12.9998 15.4038 13.1558 15.0928 13.4678C14.7819 13.7798 14.6259 14.1655 14.6248 14.6248V24.3748C14.6248 24.8352 14.7808 25.2214 15.0928 25.5334C15.4048 25.8454 15.7905 26.0009 16.2498 25.9998Z" fill="black"/>
</svg>
