<svg width="29" height="37" viewBox="0 0 29 37" fill="none" xmlns="http://www.w3.org/2000/svg">
<path d="M20.3 2.9C19.546 2.70667 17.7287 1.93333 14.5 1.93333C11.2713 1.93333 9.454 2.70667 8.7 2.9C7.67533 2.06867 4.94933 0 1.93333 0C1.276 1.93333 1.37267 4.292 1.93333 5.8C0.483333 7.73333 0 9.66667 0 12.5667C0 16.8007 0.928 19.488 2.9 21.2667C4.872 23.0453 6.97933 23.9153 9.66667 24.1667C8.41 25.2107 8.7 27.782 8.7 29V36.7333H20.3V29C20.3 27.782 20.59 25.2107 19.3333 24.1667C22.0207 23.9153 24.128 23.0453 26.1 21.2667C28.072 19.488 29 16.8007 29 12.5667C29 9.66667 28.5167 7.73333 27.0667 5.8C27.6273 4.292 27.724 1.93333 27.0667 0C24.0507 0 21.3247 2.06867 20.3 2.9Z" fill="black" fill-opacity="0.3"/>
</svg>
